<svg xmlns="http://www.w3.org/2000/svg" style="margin:auto;display:block;" width="251" height="90" preserveAspectRatio="xMidYMid">
<style type="text/css">
  text {
    text-anchor: middle; font-size: 106px; opacity: 0;
  }
</style>
<g style="transform-origin: 125.5px 45px; transform: scale(0.954955);">
<g transform="translate(125.5,45)">
  <g transform="translate(-3,6)">
  <g class="path" style="transform: matrix(1, 0, 0, 1, 0, 0); transform-origin: -97.0553px -8.47625px; animation: 1.66667s linear -0.88s infinite normal forwards running tremble-78b57ee6-1582-450a-b09d-1d66fb1efa1a;">
  <path d="M5.31-74.14L5.31-74.14L5.31-74.14Q7.91-77.29 11.60-78.05L11.60-78.05L11.60-78.05Q13.22-78.48 14.85-78.81L14.85-78.81L14.85-78.81Q16.48-79.13 18.21-80.11L18.21-80.11L18.21-80.11Q21.46-81.95 22.71-81.95L22.71-81.95L22.71-81.95Q23.96-81.95 24.66-81.73L24.66-81.73L24.66-81.73Q25.37-81.52 26.29-81.41L26.29-81.41L26.29-81.41Q27.21-81.30 28.24-81.30L28.24-81.30L28.24-81.30Q29.27-81.30 30.57-81.08L30.57-81.08L30.57-81.08Q34.69-80.54 39.24-75.66L39.24-75.66L39.24-75.66Q42.17-72.52 42.87-69.16L42.87-69.16L42.87-69.16Q43.58-65.80 43.47-62.55L43.47-62.55L43.47-62.55Q43.36-57.88 44.12-55.61L44.12-55.61L44.12-55.61Q44.88-53.33 45.09-52.14L45.09-52.14L45.09-52.14Q45.31-50.95 44.82-48.83L44.82-48.83L44.82-48.83Q44.33-46.72 43.25-45.85L43.25-45.85L43.25-45.85Q42.17-44.99 40.87-44.77L40.87-44.77L40.87-44.77Q39.57-44.55 38.37-44.66L38.37-44.66L38.37-44.66Q37.18-44.77 36.42-44.77L36.42-44.77L36.42-44.77Q35.66-44.77 35.39-44.39L35.39-44.39L35.39-44.39Q35.12-44.01 34.80-43.58L34.80-43.58L34.80-43.58Q34.04-42.82 31.87-43.47L31.87-43.47L31.87-43.47Q29.70-44.12 28.29-46.23L28.29-46.23L28.29-46.23Q26.88-48.35 27.97-51.71L27.97-51.71L27.97-51.71Q28.29-52.79 28.62-53.71L28.62-53.71L28.62-53.71Q28.94-54.63 28.73-55.28L28.73-55.28L28.73-55.28Q28.29-56.80 26.67-56.91L26.67-56.91L26.67-56.91Q25.04-57.02 23.85-56.04L23.85-56.04L23.85-56.04Q22.22-54.52 21.73-52.30L21.73-52.30L21.73-52.30Q21.25-50.08 21.41-49.10L21.41-49.10L21.41-49.10Q21.57-48.13 21.57-47.04L21.57-47.04L21.57-47.04Q21.57-45.96 21.68-44.77L21.68-44.77L21.68-44.77Q22.11-41.95 23.03-40.97L23.03-40.97L23.03-40.97Q23.96-40.00 24.61-39.89L24.61-39.89L24.61-39.89Q25.26-39.78 25.85-39.84L25.85-39.84L25.85-39.84Q26.45-39.89 27.10-39.89L27.10-39.89L27.10-39.89Q27.75-39.89 28.94-39.35L28.94-39.35L28.94-39.35Q30.13-38.81 31.38-38.26L31.38-38.26L31.38-38.26Q32.63-37.72 33.60-36.53L33.60-36.53L33.60-36.53Q34.58-35.34 35.28-35.01L35.28-35.01L35.28-35.01Q35.99-34.69 36.53-34.42L36.53-34.42L36.53-34.42Q37.07-34.15 37.56-33.93L37.56-33.93L37.56-33.93Q38.05-33.71 38.37-32.84L38.37-32.84L38.37-32.84Q39.78-29.05 39.02-24.06L39.02-24.06L39.02-24.06Q38.81-22.22 38.64-21.14L38.64-21.14L38.64-21.14Q38.48-20.05 38.37-19.24L38.37-19.24L38.37-19.24Q38.26-18.43 38.16-17.83L38.16-17.83L38.16-17.83Q38.05-17.24 38.05-16.04L38.05-16.04L38.05-16.04Q38.05-11.60 36.58-9.21L36.58-9.21L36.58-9.21Q35.12-6.83 33.60-5.96L33.60-5.96L33.60-5.96Q32.09-5.09 31.65-4.66L31.65-4.66L31.65-4.66Q31.22-4.23 30.95-3.58L30.95-3.58L30.95-3.58Q30.68-2.93 30.13-2.17L30.13-2.17L30.13-2.17Q28.83-0.33 26.34 0.43L26.34 0.43L26.34 0.43Q23.52 1.30 20.32 1.25L20.32 1.25L20.32 1.25Q17.13 1.19 15.39 0.87L15.39 0.87L15.39 0.87Q13.66 0.54 12.19-0.76L12.19-0.76L12.19-0.76Q10.73-2.06 9.81-3.63L9.81-3.63L9.81-3.63Q8.89-5.20 8.35-5.37L8.35-5.37L8.35-5.37Q7.80-5.53 7.15-5.53L7.15-5.53L5.85-5.53L5.85-5.53Q4.12-5.53 3.52-6.56L3.52-6.56L3.52-6.56Q2.93-7.59 3.09-8.51L3.09-8.51L3.09-8.51Q3.25-9.43 3.14-11.17L3.14-11.17L3.14-11.17Q3.14-12.90 3.20-14.42L3.20-14.42L3.20-14.42Q3.25-15.93 4.44-17.02L4.44-17.02L4.44-17.02Q7.05-19.08 9.00-19.19L9.00-19.19L9.00-19.19Q10.95-19.29 11.60-19.95L11.60-19.95L11.60-19.95Q12.25-20.60 12.63-21.14L12.63-21.14L12.63-21.14Q13.01-21.68 13.71-21.79L13.71-21.79L13.71-21.79Q14.42-21.90 15.18-21.68L15.18-21.68L15.18-21.68Q17.02-21.14 17.02-19.51L17.02-19.51L17.02-19.51Q17.02-17.89 17.07-16.53L17.07-16.53L17.07-16.53Q17.13-15.18 17.45-14.09L17.45-14.09L17.45-14.09Q18.21-11.27 20.27-11.49L20.27-11.49L20.27-11.49Q22.55-11.71 22.76-16.04L22.76-16.04L22.76-16.04Q22.76-17.24 22.76-18.32L22.76-18.32L22.76-20.70L22.76-20.70Q22.76-25.80 17.89-28.51L17.89-28.51L17.89-28.51Q15.93-29.59 14.09-30.57L14.09-30.57L14.09-30.57Q12.25-31.54 10.62-32.95L10.62-32.95L10.62-32.95Q6.94-36.21 5.96-40.43L5.96-40.43L5.96-40.43Q4.99-44.66 4.55-45.91L4.55-45.91L4.55-45.91Q4.12-47.15 3.74-47.59L3.74-47.59L3.74-47.59Q3.36-48.02 2.93-48.24L2.93-48.24L2.93-48.24Q2.49-48.45 1.73-49.54L1.73-49.54L1.73-49.54Q0.54-51.16 1.19-53.33L1.19-53.33L1.19-53.33Q1.84-55.50 2.28-56.96L2.28-56.96L2.28-56.96Q2.71-58.43 2.71-60.16L2.71-60.16L2.71-60.16Q2.71-61.90 2.55-63.58L2.55-63.58L2.55-63.58Q2.38-65.26 2.38-66.99L2.38-66.99L2.38-66.99Q2.60-70.89 5.31-74.14" fill="#373737" stroke="none" stroke-width="none" transform="translate(-120.11459350585938,31.872388671875004)" style="fill: rgb(55, 55, 55);">
  </path></g><g class="path" style="transform: matrix(1, 0, 0, 1, 0, 0); transform-origin: -49.7678px -8.30053px; animation: 1.66667s linear -0.66s infinite normal forwards running tremble-78b57ee6-1582-450a-b09d-1d66fb1efa1a;"><path d="M51.44-79.56L51.44-79.56L51.44-79.56Q53.87-79.35 55.77-79.40L55.77-79.40L55.77-79.40Q57.67-79.46 61.46-79.35L61.46-79.35L61.46-79.35Q67.75-79.02 70.35-80.21L70.35-80.21L70.35-80.21Q75.66-82.92 78.91-80.87L78.91-80.87L78.91-80.87Q80.43-80.00 81.84-79.78L81.84-79.78L81.84-79.78Q83.25-79.56 85.85-81.08L85.85-81.08L85.85-81.08Q88.67-82.27 90.51-81.62L90.51-81.62L90.51-81.62Q92.36-80.97 93.22-80.00L93.22-80.00L93.22-80.00Q94.09-79.02 94.36-76.58L94.36-76.58L94.36-76.58Q94.63-74.14 94.47-71.76L94.47-71.76L94.47-71.76Q94.31-69.38 93.98-67.32L93.98-67.32L93.98-67.32Q93.33-61.79 93.49-60.05L93.49-60.05L93.49-60.05Q93.66-58.32 93.93-56.48L93.93-56.48L93.93-56.48Q94.20-54.63 94.09-52.90L94.09-52.90L94.09-52.90Q93.87-48.67 90.62-48.13L90.62-48.13L90.62-48.13Q88.24-47.80 87.15-49.27L87.15-49.27L87.15-49.27Q86.07-50.73 85.36-52.52L85.36-52.52L85.36-52.52Q84.66-54.31 83.95-55.72L83.95-55.72L83.95-55.72Q83.25-57.13 81.95-56.75L81.95-56.75L81.95-56.75Q80.65-56.37 80.32-53.93L80.32-53.93L80.32-53.93Q80.00-51.49 80.11-48.18L80.11-48.18L80.11-48.18Q80.21-44.88 80.54-41.35L80.54-41.35L80.54-41.35Q80.87-37.83 80.97-35.39L80.97-35.39L80.97-35.39Q81.08-32.95 81.24-30.46L81.24-30.46L81.24-30.46Q81.41-27.97 81.41-25.80L81.41-25.80L81.41-25.80Q81.41-21.14 80.11-19.40L80.11-19.40L80.11-19.40Q79.46-18.54 79.46-17.34L79.46-17.34L79.46-17.34Q79.46-16.15 79.73-14.85L79.73-14.85L79.73-14.85Q80.00-13.55 80.32-12.25L80.32-12.25L80.32-12.25Q80.65-10.95 80.65-9.11L80.65-9.11L80.65-9.11Q80.65-4.77 76.75-3.04L76.75-3.04L76.75-3.04Q75.34-2.38 74.14-0.87L74.14-0.87L74.14-0.87Q72.95 0.65 72.36 1.14L72.36 1.14L72.36 1.14Q71.76 1.63 70.95 1.46L70.95 1.46L70.95 1.46Q70.13 1.30 69.75 0.70L69.75 0.70L69.75 0.70Q69.38 0.11 69.05-0.54L69.05-0.54L69.05-0.54Q68.40-2.28 67.21-2.82L67.21-2.82L67.21-2.82Q65.80-3.14 65.53-5.20L65.53-5.20L65.53-5.20Q65.26-7.26 65.20-8.83L65.20-8.83L65.20-8.83Q65.15-10.41 64.93-12.68L64.93-12.68L64.93-12.68Q64.71-14.96 63.52-16.37L63.52-16.37L63.52-16.37Q62.33-17.78 61.57-18.16L61.57-18.16L61.57-18.16Q60.81-18.54 60.59-20.00L60.59-20.00L60.59-20.00Q60.38-21.46 60.65-22.98L60.65-22.98L60.65-22.98Q60.92-24.50 61.35-26.34L61.35-26.34L61.35-26.34Q62.65-31.65 62.76-36.31L62.76-36.31L62.76-36.31Q63.09-44.99 62.76-47.80L62.76-47.80L62.76-47.80Q62.33-53.44 59.73-53.44L59.73-53.44L59.73-53.44Q58.43-53.33 57.88-52.30L57.88-52.30L57.88-52.30Q57.34-51.27 56.69-49.86L56.69-49.86L56.69-49.86Q55.17-46.29 51.16-47.91L51.16-47.91L51.16-47.91Q49.75-48.56 49.38-49.97L49.38-49.97L49.38-49.97Q49.00-51.38 48.94-53.28L48.94-53.28L48.94-53.28Q48.89-55.17 48.83-57.29L48.83-57.29L48.83-57.29Q48.78-59.40 48.07-61.30L48.07-61.30L48.07-61.30Q47.37-63.20 46.72-64.93L46.72-64.93L46.72-64.93Q46.07-66.67 46.18-68.40L46.18-68.40L46.18-68.40Q46.29-70.13 46.99-71.76L46.99-71.76L46.99-71.76Q47.70-73.39 47.42-75.01L47.42-75.01L47.42-75.01Q47.15-76.64 48.07-78.21L48.07-78.21L48.07-78.21Q49.00-79.78 51.44-79.56" fill="#373737" stroke="none" stroke-width="none" transform="translate(-120.11459350585938,31.872388671875004)" style="fill: rgb(35, 35, 35);"></path></g><g class="path" style="transform: matrix(1, 0, 0, 1, 0, 0); transform-origin: -3.2138px -8.13152px; animation: 1.66667s linear -0.44s infinite normal forwards running tremble-78b57ee6-1582-450a-b09d-1d66fb1efa1a;"><path d="M103.95 1.30L103.95 1.30L103.95 1.30Q102.87 1.63 101.52 1.14L101.52 1.14L101.52 1.14Q100.16 0.65 99.62-0.70L99.62-0.70L99.62-0.70Q99.08-2.06 98.91-3.85L98.91-3.85L98.91-3.85Q98.75-5.64 98.86-7.70L98.86-7.70L98.86-7.70Q98.97-9.76 98.97-11.71L98.97-11.71L98.97-11.71Q98.97-16.04 97.56-17.24L97.56-17.24L97.56-17.24Q94.63-19.40 95.17-28.29L95.17-28.29L95.17-28.29Q95.72-33.39 96.37-36.42L96.37-36.42L96.37-36.42Q97.45-41.41 97.40-44.88L97.40-44.88L97.40-44.88Q97.34-48.35 97.61-50.30L97.61-50.30L97.61-50.30Q97.88-52.25 98.26-53.55L98.26-53.55L98.26-53.55Q98.64-54.85 99.18-56.26L99.18-56.26L99.18-56.26Q99.73-57.67 100.16-60.92L100.16-60.92L100.16-60.92Q101.24-69.05 102.11-71.00L102.11-71.00L102.11-71.00Q103.30-73.71 104.98-76.58L104.98-76.58L104.98-76.58Q106.66-79.46 107.75-80.43L107.75-80.43L107.75-80.43Q110.24-82.27 114.90-80.76L114.90-80.76L114.90-80.76Q118.37-79.56 121.35-80.00L121.35-80.00L121.35-80.00Q124.33-80.43 125.90-80.38L125.90-80.38L125.90-80.38Q127.48-80.32 129.43-79.19L129.43-79.19L129.43-79.19Q131.38-78.05 132.46-76.48L132.46-76.48L132.46-76.48Q133.55-74.90 133.98-73.06L133.98-73.06L133.98-73.06Q134.74-69.92 134.09-65.09L134.09-65.09L134.09-65.09Q133.44-60.27 133.60-57.29L133.60-57.29L133.60-57.29Q133.76-54.31 134.90-51.65L134.90-51.65L134.90-51.65Q136.04-49.00 136.42-47.42L136.42-47.42L136.42-47.42Q136.80-45.85 137.07-44.28L137.07-44.28L137.07-44.28Q137.34-42.71 137.50-40.92L137.50-40.92L137.50-40.92Q137.67-39.13 138.15-36.86L138.15-36.86L138.15-36.86Q138.64-34.58 138.70-33.22L138.70-33.22L138.70-33.22Q138.75-31.87 138.64-31.00L138.64-31.00L138.64-31.00Q138.53-30.13 138.37-29.43L138.37-29.43L138.37-29.43Q138.21-28.73 138.48-27.26L138.48-27.26L138.48-27.26Q138.75-25.80 138.48-24.06L138.48-24.06L138.48-24.06Q138.21-22.33 137.88-20.70L137.88-20.70L137.88-20.70Q136.69-15.72 136.91-13.66L136.91-13.66L136.91-13.66Q137.34-9.97 136.91-8.40L136.91-8.40L136.91-8.40Q136.47-6.83 136.09-5.85L136.09-5.85L136.09-5.85Q135.71-4.88 135.23-3.14L135.23-3.14L135.23-3.14Q134.74-1.41 133.22 0L133.22 0L133.22 0Q131.70 1.41 130.35 0.87L130.35 0.87L130.35 0.87Q128.99 0.33 128.61-0.70L128.61-0.70L128.61-0.70Q128.24-1.73 127.96-2.82L127.96-2.82L127.96-2.82Q127.69-3.90 127.31-4.77L127.31-4.77L127.31-4.77Q126.93-5.64 125.96-5.75L125.96-5.75L125.96-5.75Q124.22-5.96 124.12-7.75L124.12-7.75L124.12-7.75Q124.01-9.54 124.17-10.89L124.17-10.89L124.17-10.89Q124.33-12.25 124.01-13.66L124.01-13.66L124.01-13.66Q123.68-15.07 122.92-16.37L122.92-16.37L122.92-16.37Q120.97-19.73 118.37-20.05L118.37-20.05L118.37-20.05Q114.47-20.60 112.95-16.26L112.95-16.26L112.95-16.26Q112.63-15.18 112.46-13.39L112.46-13.39L112.46-13.39Q112.30-11.60 111.60-10.19L111.60-10.19L111.60-10.19Q110.89-8.78 110.08-7.80L110.08-7.80L110.08-7.80Q109.27-6.83 108.56-6.02L108.56-6.02L108.56-6.02Q107.86-5.20 107.64-4.01L107.64-4.01L107.64-4.01Q106.77 0.65 103.95 1.30zM113.60-44.12L113.60-44.12L113.60-44.12Q111.43-38.26 113.06-34.80L113.06-34.80L113.06-34.80Q114.14-32.84 115.88-32.74L115.88-32.74L115.88-32.74Q119.02-32.41 119.62-33.22L119.62-33.22L119.62-33.22Q120.21-34.04 121.03-34.96L121.03-34.96L121.03-34.96Q121.84-35.88 121.62-37.78L121.62-37.78L121.62-37.78Q121.41-39.67 121.30-41.14L121.30-41.14L121.30-41.14Q121.19-42.60 120.27-44.44L120.27-44.44L120.27-44.44Q119.35-46.29 119.02-48.40L119.02-48.40L119.02-48.40Q118.70-50.51 118.59-52.46L118.59-52.46L118.59-52.46Q118.15-56.80 116.64-56.80L116.64-56.80L116.64-56.80Q115.55-56.80 115.28-55.66L115.28-55.66L115.28-55.66Q115.01-54.52 114.90-52.68L114.90-52.68L114.90-52.68Q114.79-47.04 113.60-44.12" fill="#373737" stroke="none" stroke-width="none" transform="translate(-120.11459350585938,31.872388671875004)" style="fill: rgb(50, 50, 50);">
  </path></g><g class="path" style="transform: matrix(1, 0, 0, 1, 0, 0); transform-origin: 46.7134px -8.24923px; animation: 1.66667s linear -0.22s infinite normal forwards running tremble-78b57ee6-1582-450a-b09d-1d66fb1efa1a;">
  <path d="M173.00-77.94L173.00-77.94L176.47-78.16L176.47-78.16Q180.16-78.16 181.73-76.96L181.73-76.96L181.73-76.96Q183.30-75.77 184.11-74.79L184.11-74.79L184.11-74.79Q184.93-73.82 185.58-72.79L185.58-72.79L185.58-72.79Q186.23-71.76 187.37-70.68L187.37-70.68L187.37-70.68Q188.50-69.59 188.50-68.13L188.50-68.13L188.50-68.13Q188.50-66.67 189.32-65.80L189.32-65.80L189.32-65.80Q190.13-64.93 190.13-62.98L190.13-62.98L190.13-62.98Q190.13-61.03 190.08-59.24L190.08-59.24L190.08-59.24Q190.02-57.45 189.70-56.31L189.70-56.31L189.70-56.31Q189.37-55.17 189.37-54.04L189.37-54.04L189.37-54.04Q189.37-52.90 189.86-51.98L189.86-51.98L189.86-51.98Q190.35-51.06 189.97-47.53L189.97-47.53L189.97-47.53Q189.59-44.01 188.78-40.43L188.78-40.43L188.78-40.43Q187.96-36.86 186.66-34.25L186.66-34.25L186.66-34.25Q184.06-29.38 178.21-26.56L178.21-26.56L178.21-26.56Q178.75-25.26 179.45-23.69L179.45-23.69L179.45-23.69Q180.16-22.11 180.81-20.49L180.81-20.49L180.81-20.49Q182.22-16.48 182.22-14.69L182.22-14.69L182.22-14.69Q182.22-12.90 182.38-12.09L182.38-12.09L182.38-12.09Q182.54-11.27 182.76-10.84L182.76-10.84L182.76-10.84Q182.98-10.41 183.36-10.19L183.36-10.19L183.36-10.19Q183.74-9.97 184.49-9.38L184.49-9.38L184.49-9.38Q185.25-8.78 185.69-7.37L185.69-7.37L185.69-7.37Q186.12-5.96 186.12-4.44L186.12-4.44L186.12-4.44Q186.12-0.98 185.31-0.16L185.31-0.16L185.31-0.16Q184.49 0.65 183.57 0.92L183.57 0.92L183.57 0.92Q182.65 1.19 181.68 1.30L181.68 1.30L181.68 1.30Q179.18 1.63 178.53 0.65L178.53 0.65L178.53 0.65Q177.67-0.22 177.61-1.14L177.61-1.14L177.61-1.14Q177.56-2.06 177.23-2.76L177.23-2.76L177.23-2.76Q176.91-3.47 176.26-3.63L176.26-3.63L176.26-3.63Q175.61-3.79 175.33-4.99L175.33-4.99L175.33-4.99Q175.06-6.18 174.58-6.56L174.58-6.56L174.58-6.56Q174.09-6.94 172.57-6.72L172.57-6.72L172.57-6.72Q169.86-6.18 168.56-9.97L168.56-9.97L168.56-9.97Q168.23-10.84 167.91-12.25L167.91-12.25L167.91-12.25Q167.58-13.66 167.15-14.96L167.15-14.96L167.15-14.96Q166.28-18.10 165.15-18.37L165.15-18.37L165.15-18.37Q164.01-18.64 163.46-18.10L163.46-18.10L163.46-18.10Q162.92-17.56 162.65-16.64L162.65-16.64L162.65-16.64Q162.38-15.72 162.38-14.58L162.38-14.58L162.38-14.58Q162.38-13.44 162.65-12.14L162.65-12.14L162.65-12.14Q162.92-10.84 162.71-9.97L162.71-9.97L162.71-9.97Q162.49-9.11 162.11-8.56L162.11-8.56L162.11-8.56Q161.73-8.02 161.30-7.59L161.30-7.59L161.30-7.59Q160.43-7.05 160.27-5.42L160.27-5.42L160.27-5.42Q160.10-3.79 159.78-2.60L159.78-2.60L159.78-2.60Q159.13 0.33 158.04 1.08L158.04 1.08L158.04 1.08Q156.96 1.84 155.88 2.01L155.88 2.01L155.88 2.01Q154.79 2.17 153.71 1.95L153.71 1.95L153.71 1.95Q151.00 1.41 150.35 0.05L150.35 0.05L150.35 0.05Q149.70-1.30 149.59-2.01L149.59-2.01L149.59-2.01Q149.48-2.71 149.54-3.36L149.54-3.36L149.54-3.36Q149.59-4.01 149.70-4.77L149.70-4.77L149.70-4.77Q149.81-5.53 149.75-6.56L149.75-6.56L149.75-6.56Q149.70-7.59 149.26-9.32L149.26-9.32L149.26-9.32Q148.83-11.06 148.72-13.44L148.72-13.44L148.61-16.26L148.61-16.26Q148.61-16.69 149.37-17.72L149.37-17.72L149.37-17.72Q150.13-18.75 149.86-20.11L149.86-20.11L149.86-20.11Q149.59-21.46 148.61-21.84L148.61-21.84L148.61-21.84Q147.64-22.22 147.64-22.76L147.64-22.76L147.64-22.76Q147.64-23.31 147.86-25.47L147.86-25.47L147.86-25.47Q148.07-27.64 147.69-30.89L147.69-30.89L147.69-30.89Q147.31-34.15 147.21-36.64L147.21-36.64L147.21-36.64Q146.77-42.06 145.31-42.76L145.31-42.76L145.31-42.76Q143.84-43.47 143.63-44.50L143.63-44.50L143.63-44.50Q143.41-45.53 143.63-46.83L143.63-46.83L143.63-46.83Q143.84-48.13 144.12-50.08L144.12-50.08L144.12-50.08Q144.39-52.03 144.71-54.04L144.71-54.04L144.71-54.04Q145.04-56.04 145.31-57.78L145.31-57.78L145.31-57.78Q145.58-59.51 145.69-60.16L145.69-60.16L145.69-60.16Q145.80-60.81 145.74-61.41L145.74-61.41L145.74-61.41Q145.69-62.00 145.69-62.55L145.69-62.55L145.69-62.55Q145.47-64.28 145.69-65.58L145.69-65.58L145.69-65.58Q146.12-68.07 145.90-69.10L145.90-69.10L145.90-69.10Q145.69-70.13 146.28-72.25L146.28-72.25L146.28-72.25Q146.88-74.36 147.31-75.23L147.31-75.23L147.31-75.23Q147.75-76.10 148.94-76.53L148.94-76.53L148.94-76.53Q150.13-76.96 151.27-77.78L151.27-77.78L151.27-77.78Q152.41-78.59 153.38-79.40L153.38-79.40L153.38-79.40Q154.36-80.21 155.12-80.92L155.12-80.92L155.12-80.92Q155.88-81.62 156.96-81.95L156.96-81.95L156.96-81.95Q160.10-82.60 161.57-82.11L161.57-82.11L161.57-82.11Q163.03-81.62 163.68-81.08L163.68-81.08L163.68-81.08Q164.33-80.54 165.25-80.00L165.25-80.00L165.25-80.00Q166.17-79.46 167.20-79.19L167.20-79.19L167.20-79.19Q168.23-78.91 169.10-78.91L169.10-78.91L169.10-78.91Q171.38-78.70 171.87-78.32L171.87-78.32L171.87-78.32Q172.35-77.94 173.00-77.94zM164.01-47.70L164.01-47.70L164.66-37.83L164.66-37.83Q164.66-36.86 164.55-35.93L164.55-35.93L164.55-35.93Q164.44-35.01 164.33-34.25L164.33-34.25L164.33-34.25Q164.22-32.63 165.52-32.30L165.52-32.30L165.52-32.30Q166.61-32.09 167.26-32.90L167.26-32.90L167.26-32.90Q167.91-33.71 168.45-35.12L168.45-35.12L168.45-35.12Q169.75-37.83 169.32-38.59L169.32-38.59L169.32-38.59Q168.45-39.67 168.83-40.49L168.83-40.49L168.83-40.49Q169.21-41.30 170.46-43.68L170.46-43.68L170.46-43.68Q171.70-46.07 172.30-47.80L172.30-47.80L172.30-47.80Q172.90-49.54 172.57-51.54L172.57-51.54L172.57-51.54Q172.25-53.55 172.25-54.31L172.25-54.31L172.25-55.50L172.25-55.50Q172.25-56.37 171.43-57.07L171.43-57.07L171.43-57.07Q170.62-57.78 170.29-57.83L170.29-57.83L170.29-57.83Q169.97-57.88 169.75-57.88L169.75-57.88L169.75-57.88Q168.78-57.67 167.91-58.05L167.91-58.05L167.91-58.05Q167.04-58.43 166.28-58.37L166.28-58.37L166.28-58.37Q165.52-58.32 164.55-57.34L164.55-57.34L164.55-57.34Q163.57-56.37 163.46-55.34L163.46-55.34L163.46-55.34Q163.36-54.31 163.46-53.01L163.46-53.01L163.46-53.01Q164.01-49.10 164.01-47.70" fill="#373737" stroke="none" stroke-width="none" transform="translate(-120.11459350585938,31.872388671875004)" style="fill: rgb(25, 25, 25);">
  </path></g><g class="path" style="transform: matrix(1, 0, 0, 1, 0, 0); transform-origin: 96.8922px -8.30053px; animation: 1.66667s linear 0s infinite normal forwards running tremble-78b57ee6-1582-450a-b09d-1d66fb1efa1a;">
  <path d="M198.10-79.56L198.10-79.56L198.10-79.56Q200.54-79.35 202.43-79.40L202.43-79.40L202.43-79.40Q204.33-79.46 208.13-79.35L208.13-79.35L208.13-79.35Q214.41-79.02 217.01-80.21L217.01-80.21L217.01-80.21Q222.33-82.92 225.58-80.87L225.58-80.87L225.58-80.87Q227.09-80.00 228.50-79.78L228.50-79.78L228.50-79.78Q229.91-79.56 232.51-81.08L232.51-81.08L232.51-81.08Q235.33-82.27 237.18-81.62L237.18-81.62L237.18-81.62Q239.02-80.97 239.89-80.00L239.89-80.00L239.89-80.00Q240.75-79.02 241.02-76.58L241.02-76.58L241.02-76.58Q241.29-74.14 241.13-71.76L241.13-71.76L241.13-71.76Q240.97-69.38 240.64-67.32L240.64-67.32L240.64-67.32Q239.99-61.79 240.16-60.05L240.16-60.05L240.16-60.05Q240.32-58.32 240.59-56.48L240.59-56.48L240.59-56.48Q240.86-54.63 240.75-52.90L240.75-52.90L240.75-52.90Q240.54-48.67 237.28-48.13L237.28-48.13L237.28-48.13Q234.90-47.80 233.82-49.27L233.82-49.27L233.82-49.27Q232.73-50.73 232.03-52.52L232.03-52.52L232.03-52.52Q231.32-54.31 230.62-55.72L230.62-55.72L230.62-55.72Q229.91-57.13 228.61-56.75L228.61-56.75L228.61-56.75Q227.31-56.37 226.99-53.93L226.99-53.93L226.99-53.93Q226.66-51.49 226.77-48.18L226.77-48.18L226.77-48.18Q226.88-44.88 227.20-41.35L227.20-41.35L227.20-41.35Q227.53-37.83 227.64-35.39L227.64-35.39L227.64-35.39Q227.75-32.95 227.91-30.46L227.91-30.46L227.91-30.46Q228.07-27.97 228.07-25.80L228.07-25.80L228.07-25.80Q228.07-21.14 226.77-19.40L226.77-19.40L226.77-19.40Q226.12-18.54 226.12-17.34L226.12-17.34L226.12-17.34Q226.12-16.15 226.39-14.85L226.39-14.85L226.39-14.85Q226.66-13.55 226.99-12.25L226.99-12.25L226.99-12.25Q227.31-10.95 227.31-9.11L227.31-9.11L227.31-9.11Q227.31-4.77 223.41-3.04L223.41-3.04L223.41-3.04Q222-2.38 220.81-0.87L220.81-0.87L220.81-0.87Q219.62 0.65 219.02 1.14L219.02 1.14L219.02 1.14Q218.42 1.63 217.61 1.46L217.61 1.46L217.61 1.46Q216.80 1.30 216.42 0.70L216.42 0.70L216.42 0.70Q216.04 0.11 215.71-0.54L215.71-0.54L215.71-0.54Q215.06-2.28 213.87-2.82L213.87-2.82L213.87-2.82Q212.46-3.14 212.19-5.20L212.19-5.20L212.19-5.20Q211.92-7.26 211.86-8.83L211.86-8.83L211.86-8.83Q211.81-10.41 211.59-12.68L211.59-12.68L211.59-12.68Q211.38-14.96 210.18-16.37L210.18-16.37L210.18-16.37Q208.99-17.78 208.23-18.16L208.23-18.16L208.23-18.16Q207.47-18.54 207.26-20.00L207.26-20.00L207.26-20.00Q207.04-21.46 207.31-22.98L207.31-22.98L207.31-22.98Q207.58-24.50 208.02-26.34L208.02-26.34L208.02-26.34Q209.32-31.65 209.43-36.31L209.43-36.31L209.43-36.31Q209.75-44.99 209.43-47.80L209.43-47.80L209.43-47.80Q208.99-53.44 206.39-53.44L206.39-53.44L206.39-53.44Q205.09-53.33 204.55-52.30L204.55-52.30L204.55-52.30Q204.01-51.27 203.36-49.86L203.36-49.86L203.36-49.86Q201.84-46.29 197.83-47.91L197.83-47.91L197.83-47.91Q196.42-48.56 196.04-49.97L196.04-49.97L196.04-49.97Q195.66-51.38 195.60-53.28L195.60-53.28L195.60-53.28Q195.55-55.17 195.50-57.29L195.50-57.29L195.50-57.29Q195.44-59.40 194.74-61.30L194.74-61.30L194.74-61.30Q194.03-63.20 193.38-64.93L193.38-64.93L193.38-64.93Q192.73-66.67 192.84-68.40L192.84-68.40L192.84-68.40Q192.95-70.13 193.65-71.76L193.65-71.76L193.65-71.76Q194.36-73.39 194.09-75.01L194.09-75.01L194.09-75.01Q193.82-76.64 194.74-78.21L194.74-78.21L194.74-78.21Q195.66-79.78 198.10-79.56" fill="#373737" stroke="none" stroke-width="none" transform="translate(-120.11459350585938,31.872388671875004)" style="fill: rgb(48, 48, 48);">
  </path></g></g>
</g>
</g>
</svg>